<svg width="100" height="37" viewBox="0 0 100 37" fill="none" xmlns="http://www.w3.org/2000/svg">
<g clip-path="url(#clip0_7_2)">
<path d="M18.9494 23.1149L15.9277 17.881L15.7674 17.6029L15.3442 16.8715L14.9223 17.6029L14.762 17.881L9.36238 27.2324L9.30896 27.3255L9.16788 27.568L9.30896 27.8132L9.36238 27.905L12.3841 33.1388L12.5444 33.4169L12.9662 34.1484L13.3895 33.4169L13.5498 33.1388L18.9494 23.7874L19.0028 23.6943L19.1439 23.4505L19.0028 23.2066L18.9494 23.1149V23.1149Z" fill="#84D5F7"/>
<path d="M14.2264 17.2701L14.6497 16.5372H1.48483L1.90809 17.2701L2.06835 17.5468L7.48442 26.9283L7.64469 27.2064L8.06794 27.9392L8.48983 27.2064L8.6501 26.9283L14.0662 17.5468L14.2264 17.2701V17.2701Z" fill="#438CCB"/>
<path d="M2.7272 15.7702H9.30894L8.88705 15.0373L8.72679 14.7606L6.01875 10.0692L5.85849 9.79112L5.43523 9.05966L5.01334 9.79112L4.85308 10.0692L2.14505 14.7606L1.98478 15.0373L1.56152 15.7702H2.7272V15.7702Z" fill="#84D5F7"/>
<path d="M7.60634 11.2828L10.0021 15.4332L10.0555 15.525L10.1966 15.7702H13.4731L13.6141 15.525L13.6676 15.4332L16.6591 10.2527L16.7126 10.1596L16.8537 9.91576L16.7126 9.67194L16.6591 9.58017L13.0128 3.26416L12.8526 2.9861L12.4293 2.25464L12.0074 2.9861L11.8471 3.26416L7.60634 10.6089L7.55292 10.702L7.41183 10.9458L7.55292 11.1896L7.60634 11.2828V11.2828ZM23.934 16.5372H16.0386L16.4619 17.27L16.6222 17.5467L19.8261 23.097L19.9863 23.3737L20.4082 24.1066L20.8315 23.3737L20.9917 23.097L24.1956 17.5467L24.3559 17.27L24.7791 16.5372H23.934Z" fill="#55A6D7"/>
<path d="M14.7839 15.0373L14.3607 15.7702H24.7024L24.2792 15.0373L24.1203 14.7606L20.1137 7.82275L19.9548 7.54606L19.5315 6.81323L19.1083 7.54606L18.9494 7.82275L14.9428 14.7606L14.7839 15.0373Z" fill="#62BFEC"/>
<path d="M19.5315 4.55859L17.2961 8.42956L12.4293 0L7.23923 8.98843L6.96528 9.45963L5.43387 6.80501L0 16.2208L8.06794 30.1925L8.72406 29.0555L12.9703 36.403L19.5877 24.938L20.4096 26.3612L26.264 16.2249L19.5315 4.55859ZM23.8847 17.3659L20.4082 23.3929L16.6605 16.9043H24.1559L23.8819 17.3755L23.8847 17.3659ZM2.18341 15.4099L2.45737 14.9401L5.43661 9.77878L8.68845 15.4099H2.18341ZM13.2662 15.4099H10.4102L7.82686 10.9458L12.4293 2.97377L16.4372 9.91713L13.2662 15.4099ZM14.0278 16.8975L8.06794 27.2201L2.10807 16.8975H14.0278ZM15.3442 17.5824L18.7289 23.4436L12.9662 33.4306L9.58838 27.5693L15.3442 17.5824ZM19.2603 7.99397L19.5343 7.52414L24.0819 15.4017H14.9825L19.2603 7.99397Z" fill="#002C3B"/>
<path d="M31.9458 24.1531C31.7026 24.1648 31.4622 24.097 31.2609 23.96C31.1777 23.8994 31.108 23.8222 31.0561 23.7334C31.0043 23.6445 30.9714 23.5458 30.9595 23.4436C30.9371 23.1927 30.9815 22.9403 31.0883 22.7121L36.9167 9.63633C37.0211 9.34309 37.2122 9.0885 37.4646 8.90624C37.6855 8.76317 37.9438 8.68837 38.207 8.69119C38.4619 8.68989 38.7115 8.76374 38.9247 8.9035C39.1775 9.08538 39.3686 9.3401 39.4726 9.63359L45.301 22.7094C45.4213 22.9373 45.4736 23.195 45.4517 23.4518C45.4433 23.5519 45.4147 23.6493 45.3676 23.7381C45.3205 23.8268 45.2559 23.9051 45.1777 23.9682C44.9814 24.1005 44.747 24.1645 44.5107 24.1504C44.2396 24.1645 43.9726 24.0804 43.7587 23.9134C43.5403 23.7104 43.3712 23.4602 43.2642 23.182L41.7574 19.6987L42.7683 20.3014H33.6018L34.5922 19.6987L33.1073 23.1847C33.0069 23.4642 32.8455 23.7178 32.6348 23.9271C32.4411 24.0853 32.1955 24.1659 31.9458 24.1531V24.1531ZM38.1618 11.3143L34.9141 19.0138L34.3812 18.4919H41.9725L41.478 19.0083L38.2042 11.3143H38.1618ZM51.0006 24.1956C49.882 24.1956 49.0396 23.8696 48.4734 23.2176C47.9072 22.5656 47.6241 21.6227 47.6241 20.389V9.787C47.6122 9.63863 47.6303 9.48937 47.6774 9.34815C47.7244 9.20694 47.7995 9.07667 47.8981 8.96514C48.0055 8.8683 48.1314 8.79413 48.2681 8.74706C48.4048 8.69999 48.5497 8.68098 48.6939 8.69119C48.9881 8.67216 49.2778 8.7707 49.4994 8.96514C49.6023 9.07436 49.6813 9.20389 49.7313 9.34541C49.7813 9.48694 49.8012 9.63734 49.7897 9.787V20.2603C49.7897 20.978 49.9377 21.5109 50.2308 21.8629C50.5239 22.2149 50.9513 22.3902 51.5102 22.3902C51.6389 22.3902 51.754 22.3902 51.8554 22.3793C51.9567 22.3683 52.0553 22.3615 52.1553 22.3464C52.223 22.3327 52.2932 22.3382 52.3578 22.3625C52.4225 22.3867 52.4791 22.4286 52.5211 22.4834C52.5923 22.5916 52.6293 22.8094 52.6293 23.1395C52.6456 23.3877 52.577 23.6341 52.4348 23.8381C52.2755 24.0192 52.0519 24.1312 51.8115 24.1504C51.6828 24.1641 51.5458 24.1751 51.4006 24.1833C51.2554 24.1915 51.1294 24.1956 51.0006 24.1956V24.1956ZM58.4412 24.1956C57.581 24.1956 56.8568 24.0454 56.2688 23.745C55.6954 23.4587 55.234 22.9891 54.9579 22.4108C54.6702 21.8227 54.5269 21.1059 54.5278 20.2603V15.1921H53.2375C52.994 15.2076 52.7543 15.1264 52.5704 14.9661C52.419 14.7964 52.3354 14.577 52.3354 14.3497C52.3354 14.1224 52.419 13.903 52.5704 13.7333C52.7576 13.58 52.9959 13.5032 53.2375 13.5183H54.5278V11.2924C54.5163 11.1427 54.5362 10.9923 54.5862 10.8508C54.6362 10.7093 54.7152 10.5797 54.8182 10.4705C55.0397 10.2761 55.3294 10.1775 55.6236 10.1966C55.7678 10.1865 55.9126 10.2056 56.0494 10.2527C56.1861 10.2997 56.3119 10.3738 56.4194 10.4705C56.518 10.582 56.5931 10.7123 56.6402 10.8535C56.6872 10.9947 56.7053 11.144 56.6934 11.2924V13.5073H59.2151C59.4567 13.4922 59.695 13.5691 59.8822 13.7223C60.0335 13.892 60.1172 14.1114 60.1172 14.3387C60.1172 14.5661 60.0335 14.7855 59.8822 14.9551C59.6982 15.1153 59.4586 15.1965 59.2151 15.1812H56.6989V20.0849C56.6989 20.8456 56.8605 21.4191 57.1838 21.8054C57.507 22.1916 58.0335 22.3866 58.7631 22.3902C58.9914 22.3933 59.2191 22.368 59.4411 22.3149C59.5998 22.2709 59.7614 22.2383 59.9247 22.2177C59.9971 22.2151 60.0692 22.2283 60.1361 22.2562C60.203 22.2841 60.2631 22.3261 60.3123 22.3793C60.4123 22.4861 60.463 22.6902 60.463 22.9916C60.4647 23.1985 60.4241 23.4036 60.3438 23.5943C60.3078 23.684 60.251 23.7639 60.1782 23.8275C60.1053 23.8911 60.0184 23.9365 59.9247 23.96C59.696 24.0301 59.4625 24.0837 59.2261 24.1203C58.967 24.1674 58.7045 24.1926 58.4412 24.1956V24.1956ZM66.2694 24.1956C65.2083 24.1956 64.2951 23.9737 63.5299 23.5299C62.7618 23.0862 62.1375 22.431 61.7314 21.6424C61.3013 20.8205 61.0862 19.8617 61.0862 18.7658C61.0734 17.9977 61.1972 17.2333 61.452 16.5085C61.6796 15.872 62.0342 15.2886 62.4944 14.7935C62.9506 14.3104 63.5095 13.936 64.1299 13.6977C64.8125 13.4362 65.5384 13.306 66.2694 13.3142C67.3159 13.3142 68.2227 13.5365 68.9898 13.9812C69.756 14.4241 70.3791 15.0772 70.7856 15.8633C71.2157 16.6724 71.4307 17.6362 71.4307 18.7549C71.4412 19.5233 71.3174 20.2877 71.065 21.0136C70.8419 21.6554 70.4863 22.2429 70.0212 22.7382C69.5631 23.2161 69.0051 23.5869 68.3871 23.8244C67.7109 24.0803 66.9924 24.2062 66.2694 24.1956V24.1956ZM66.2694 22.519C66.8164 22.5303 67.3546 22.3808 67.8173 22.0889C68.2823 21.7773 68.6453 21.3356 68.861 20.8191C69.1297 20.165 69.2575 19.4617 69.2364 18.7549C69.2364 17.5221 68.9624 16.5902 68.4145 15.9592C68.1502 15.65 67.8196 15.4043 67.4473 15.2404C67.075 15.0765 66.6705 14.9987 66.264 15.0127C65.7112 14.9991 65.1662 15.1451 64.6942 15.4332C64.2277 15.7378 63.864 16.176 63.6504 16.6906C63.3847 17.3454 63.2596 18.0487 63.2833 18.7549C63.2833 19.974 63.5573 20.9059 64.1052 21.5506C64.6531 22.1953 65.3745 22.5181 66.2694 22.519V22.519ZM78.6124 28.0666C77.8573 28.0688 77.1042 27.9898 76.366 27.831C75.6712 27.6843 75.0058 27.4223 74.3976 27.0557C74.2102 26.9698 74.0582 26.8217 73.9675 26.6365C73.8968 26.4779 73.8781 26.301 73.9141 26.1311C73.9479 25.9634 74.0259 25.8078 74.1401 25.6804C74.2501 25.5533 74.3964 25.463 74.5593 25.4215C74.7392 25.3813 74.9277 25.4122 75.0853 25.5078C75.6475 25.825 76.2522 26.0603 76.881 26.2064C77.4 26.3231 77.9299 26.3847 78.4618 26.39C79.4662 26.39 80.2192 26.1352 80.7205 25.6256C81.2218 25.1161 81.4725 24.3673 81.4725 23.3792V21.1876H81.667C81.4647 21.9585 80.9815 22.6258 80.3123 23.0587C79.6036 23.5221 78.7714 23.7608 77.9248 23.7436C77.0547 23.7639 76.1967 23.5364 75.451 23.0875C74.7439 22.6452 74.1772 22.011 73.8169 21.2588C73.4138 20.4029 73.215 19.4651 73.2361 18.5193C73.2254 17.7954 73.3385 17.0751 73.5703 16.3893C73.7753 15.788 74.0965 15.2328 74.5154 14.7552C74.9267 14.2979 75.4337 13.9368 76.0003 13.6977C76.607 13.4421 77.2597 13.3139 77.918 13.321C78.768 13.3005 79.6041 13.5394 80.3151 14.0059C80.9778 14.4383 81.4509 15.1068 81.6382 15.8756L81.4232 16.2414V14.4607C81.428 14.2461 81.4939 14.0373 81.6132 13.8589C81.7326 13.6805 81.9004 13.5399 82.0969 13.4535C82.2934 13.3672 82.5105 13.3388 82.7226 13.3716C82.9347 13.4044 83.1331 13.4971 83.2943 13.6388C83.3929 13.7503 83.468 13.8806 83.515 14.0218C83.5621 14.163 83.5802 14.3123 83.5683 14.4607V23.1272C83.5683 24.7627 83.1455 25.9955 82.2998 26.8256C81.4542 27.6556 80.2251 28.0693 78.6124 28.0666ZM78.4412 22.0396C79.0091 22.0571 79.5697 21.9076 80.0534 21.6095C80.5107 21.3083 80.8698 20.8797 81.0862 20.3767C81.342 19.7873 81.4668 19.1493 81.452 18.507C81.452 17.4321 81.183 16.5788 80.6452 15.9469C80.1073 15.3149 79.3726 14.9994 78.4412 15.0003C77.8878 14.9786 77.3406 15.1237 76.8706 15.4168C76.4007 15.7099 76.0297 16.1375 75.8058 16.6441C75.5427 17.2286 75.4144 17.8648 75.4305 18.5056C75.4305 19.595 75.7044 20.4552 76.2523 21.0862C76.8002 21.7172 77.5298 22.0368 78.4412 22.0451V22.0396ZM87.7091 11.1636C87.279 11.1636 86.9456 11.0563 86.7091 10.8417C86.5883 10.7255 86.4941 10.5845 86.4329 10.4285C86.3716 10.2725 86.3448 10.105 86.3544 9.93768C86.3544 9.53633 86.4735 9.23224 86.7091 9.02404C86.9447 8.81583 87.279 8.71173 87.7091 8.71173C88.1392 8.71173 88.4734 8.81583 88.709 9.02404C88.9446 9.23224 89.0638 9.53633 89.0638 9.93768C89.0736 10.1051 89.0469 10.2726 88.9857 10.4287C88.9244 10.5847 88.83 10.7257 88.709 10.8417C88.4734 11.0568 88.1392 11.1636 87.7091 11.1636ZM87.7091 24.1312C87.5618 24.1403 87.4143 24.1171 87.2769 24.0634C87.1394 24.0098 87.0154 23.9268 86.9132 23.8203C86.7163 23.5743 86.6186 23.2635 86.6393 22.9491V14.562C86.617 14.2508 86.7151 13.9428 86.9132 13.7018C87.0168 13.5978 87.1413 13.5171 87.2786 13.4651C87.4158 13.4131 87.5626 13.3911 87.7091 13.4005C87.8571 13.3918 88.0053 13.4141 88.1443 13.466C88.2832 13.5179 88.4097 13.5982 88.5159 13.7018C88.7225 13.9389 88.8269 14.2482 88.8062 14.562V22.9491C88.8269 23.2635 88.7292 23.5743 88.5323 23.8203C88.426 23.9289 88.2972 24.013 88.155 24.0668C88.0129 24.1205 87.8606 24.1425 87.7091 24.1312V24.1312ZM96.4838 24.1956C95.409 24.1956 94.4807 23.97 93.6991 23.5189C92.9197 23.07 92.288 22.4036 91.8814 21.6013C91.4513 20.7794 91.2362 19.8082 91.2362 18.6878C91.2249 17.9219 91.3487 17.1601 91.6019 16.4372C91.8192 15.8084 92.1743 15.2361 92.6412 14.7621C93.108 14.2881 93.6749 13.9245 94.3004 13.6977C95.5081 13.253 96.8252 13.2002 98.0645 13.547C98.6181 13.698 99.1391 13.9496 99.6014 14.2894C99.7681 14.3796 99.8947 14.5293 99.9562 14.7086C100.007 14.8724 100.014 15.0464 99.9781 15.214C99.9446 15.3813 99.8621 15.5348 99.7411 15.6551C99.6233 15.7748 99.4682 15.8507 99.3014 15.8701C99.1048 15.8858 98.9084 15.8378 98.7412 15.7332C98.4212 15.501 98.0654 15.3229 97.6878 15.2058C97.3534 15.1016 97.0054 15.0471 96.655 15.0442C96.1865 15.0344 95.7207 15.1187 95.2853 15.2921C94.902 15.4489 94.5599 15.6916 94.2853 16.0016C93.999 16.3354 93.7899 16.7283 93.673 17.1523C93.5296 17.6629 93.4608 18.1916 93.4689 18.722C93.4689 19.8973 93.7429 20.8182 94.2908 21.4848C94.8387 22.1515 95.6236 22.4848 96.6454 22.4848C96.995 22.4824 97.3426 22.4317 97.6782 22.3341C98.0565 22.2245 98.4128 22.0502 98.7316 21.8191C98.8977 21.7122 99.0957 21.6662 99.2918 21.6889C99.4534 21.7138 99.6014 21.7937 99.711 21.9149C99.818 22.0377 99.892 22.1857 99.926 22.345C99.9615 22.5134 99.9501 22.6882 99.8932 22.8505C99.8272 23.0334 99.6973 23.1862 99.5274 23.2806C99.0772 23.607 98.5706 23.8476 98.033 23.9901C97.5277 24.1256 97.0069 24.1946 96.4838 24.1956V24.1956Z" fill="white"/>
</g>
<defs>
<clipPath id="clip0_7_2">
<rect width="100" height="36.403" fill="white"/>
</clipPath>
</defs>
</svg>
