<svg xmlns="http://www.w3.org/2000/svg" width="109" height="27" fill="none" viewBox="0 0 109 27"><path fill="#fff" d="M1.68 21V6.3H6.447C7.469 6.3 8.358 6.461 9.114 6.783C9.884 7.091 10.479 7.574 10.899 8.232C11.319 8.89 11.529 9.737 11.529 10.773C11.529 11.781 11.305 12.628 10.857 13.314C10.423 13.986 9.793 14.518 8.967 14.91L12.264 21H9.828L6.846 15.267C6.818 15.267 6.797 15.267 6.783 15.267C6.769 15.267 6.755 15.267 6.741 15.267H3.78V21H1.68ZM3.78 13.482H6.426C7.42 13.482 8.169 13.244 8.673 12.768C9.191 12.278 9.45 11.613 9.45 10.773C9.45 9.919 9.191 9.261 8.673 8.799C8.169 8.323 7.42 8.085 6.426 8.085H3.78V13.482ZM19.0047 21.21C17.8007 21.21 16.7787 20.965 15.9387 20.475C15.1127 19.971 14.4897 19.313 14.0697 18.501C13.6497 17.675 13.4397 16.765 13.4397 15.771C13.4397 14.805 13.6357 13.923 14.0277 13.125C14.4337 12.327 15.0077 11.69 15.7497 11.214C16.5057 10.738 17.4157 10.5 18.4797 10.5C19.3337 10.5 20.0897 10.668 20.7477 11.004C21.4197 11.34 21.9447 11.837 22.3227 12.495C22.7147 13.139 22.9107 13.923 22.9107 14.847C22.9107 15.001 22.9037 15.162 22.8897 15.33C22.8757 15.498 22.8547 15.673 22.8267 15.855H15.3717C15.4697 16.807 15.7007 17.549 16.0647 18.081C16.4287 18.613 16.8837 18.991 17.4297 19.215C17.9757 19.425 18.5777 19.53 19.2357 19.53C19.7117 19.53 20.2087 19.481 20.7267 19.383C21.2447 19.285 21.7347 19.131 22.1967 18.921L22.4487 20.412C22.0567 20.594 21.5667 20.776 20.9787 20.958C20.4047 21.126 19.7467 21.21 19.0047 21.21ZM15.5397 14.553H20.9577C20.9577 14.063 20.8667 13.643 20.6847 13.293C20.5027 12.943 20.2227 12.67 19.8447 12.474C19.4807 12.278 19.0117 12.18 18.4377 12.18C17.5977 12.18 16.9467 12.39 16.4847 12.81C16.0367 13.23 15.7217 13.811 15.5397 14.553ZM29.4988 26.25C28.5608 26.25 27.7208 26.131 26.9788 25.893C26.2508 25.669 25.6698 25.326 25.2358 24.864C24.8158 24.416 24.6058 23.856 24.6058 23.184C24.6058 22.624 24.7598 22.141 25.0678 21.735C25.3898 21.343 25.8308 21.021 26.3908 20.769C26.0548 20.601 25.8028 20.412 25.6348 20.202C25.4668 19.978 25.3828 19.733 25.3828 19.467C25.3828 19.145 25.4738 18.858 25.6558 18.606C25.8518 18.354 26.1668 18.144 26.6008 17.976C26.0268 17.612 25.5858 17.129 25.2778 16.527C24.9698 15.925 24.8158 15.253 24.8158 14.511C24.8158 13.769 24.9838 13.097 25.3198 12.495C25.6558 11.879 26.1388 11.396 26.7688 11.046C27.3988 10.682 28.1618 10.5 29.0578 10.5C29.5338 10.5 29.9818 10.57 30.4018 10.71C30.8218 10.85 31.2138 11.046 31.5778 11.298C31.8858 11.116 32.2568 10.969 32.6908 10.857C33.1248 10.731 33.6078 10.668 34.1398 10.668C34.1678 10.668 34.1958 10.668 34.2238 10.668C34.2518 10.668 34.2798 10.668 34.3078 10.668L34.0768 11.928C33.9928 11.928 33.9088 11.928 33.8248 11.928C33.7548 11.928 33.6778 11.928 33.5938 11.928C33.5238 11.928 33.3628 11.942 33.1108 11.97C32.8588 11.984 32.6278 12.019 32.4178 12.075C32.6978 12.411 32.9148 12.789 33.0688 13.209C33.2368 13.629 33.3208 14.063 33.3208 14.511C33.3208 15.295 33.1458 16.002 32.7958 16.632C32.4598 17.248 31.9768 17.738 31.3468 18.102C30.7168 18.452 29.9538 18.627 29.0578 18.627C28.8058 18.627 28.5608 18.613 28.3228 18.585C28.0988 18.543 27.8818 18.494 27.6718 18.438C27.3498 18.55 27.1888 18.732 27.1888 18.984C27.1888 19.138 27.2798 19.278 27.4618 19.404C27.6438 19.516 27.9378 19.6 28.3438 19.656L31.0948 20.097C32.2008 20.279 33.0548 20.601 33.6568 21.063C34.2728 21.525 34.5808 22.19 34.5808 23.058C34.5808 23.772 34.3708 24.36 33.9508 24.822C33.5308 25.298 32.9358 25.655 32.1658 25.893C31.4098 26.131 30.5208 26.25 29.4988 26.25ZM29.6668 24.57C30.6328 24.57 31.3748 24.444 31.8928 24.192C32.4108 23.94 32.6698 23.576 32.6698 23.1C32.6698 22.722 32.5088 22.421 32.1868 22.197C31.8648 21.987 31.3958 21.826 30.7798 21.714L27.8398 21.21C27.4618 21.392 27.1258 21.623 26.8318 21.903C26.5518 22.183 26.4118 22.512 26.4118 22.89C26.4118 23.478 26.7058 23.905 27.2938 24.171C27.8818 24.437 28.6728 24.57 29.6668 24.57ZM29.0578 17.115C29.8558 17.115 30.4648 16.877 30.8848 16.401C31.3048 15.925 31.5148 15.302 31.5148 14.532C31.5148 13.804 31.3048 13.202 30.8848 12.726C30.4648 12.25 29.8558 12.012 29.0578 12.012C28.2598 12.012 27.6508 12.25 27.2308 12.726C26.8248 13.202 26.6218 13.804 26.6218 14.532C26.6218 15.302 26.8248 15.925 27.2308 16.401C27.6508 16.877 28.2598 17.115 29.0578 17.115ZM41.2598 21.21C40.0558 21.21 39.0338 20.965 38.1938 20.475C37.3678 19.971 36.7448 19.313 36.3248 18.501C35.9048 17.675 35.6948 16.765 35.6948 15.771C35.6948 14.805 35.8908 13.923 36.2828 13.125C36.6888 12.327 37.2628 11.69 38.0048 11.214C38.7608 10.738 39.6708 10.5 40.7348 10.5C41.5888 10.5 42.3448 10.668 43.0028 11.004C43.6748 11.34 44.1998 11.837 44.5778 12.495C44.9698 13.139 45.1658 13.923 45.1658 14.847C45.1658 15.001 45.1588 15.162 45.1448 15.33C45.1308 15.498 45.1098 15.673 45.0818 15.855H37.6268C37.7248 16.807 37.9558 17.549 38.3198 18.081C38.6838 18.613 39.1388 18.991 39.6848 19.215C40.2308 19.425 40.8328 19.53 41.4908 19.53C41.9668 19.53 42.4638 19.481 42.9818 19.383C43.4998 19.285 43.9898 19.131 44.4518 18.921L44.7038 20.412C44.3118 20.594 43.8218 20.776 43.2338 20.958C42.6598 21.126 42.0018 21.21 41.2598 21.21ZM37.7948 14.553H43.2128C43.2128 14.063 43.1218 13.643 42.9398 13.293C42.7578 12.943 42.4778 12.67 42.0998 12.474C41.7358 12.278 41.2668 12.18 40.6928 12.18C39.8528 12.18 39.2018 12.39 38.7398 12.81C38.2918 13.23 37.9768 13.811 37.7948 14.553ZM46.4433 21L50.0343 15.876L46.5273 10.71H48.6483L51.2313 14.784L53.6043 10.71H55.8093L52.4283 15.708L55.9353 21H53.8143L51.2103 16.947L48.5643 21H46.4433Z"/><path fill="#5FF59B" d="M58.3636 21V6.3H60.3586V19.194H67.0996V21H58.3636ZM73.74 21.21C72.536 21.21 71.514 20.965 70.674 20.475C69.848 19.971 69.225 19.313 68.805 18.501C68.385 17.675 68.175 16.765 68.175 15.771C68.175 14.805 68.371 13.923 68.763 13.125C69.169 12.327 69.743 11.69 70.485 11.214C71.241 10.738 72.151 10.5 73.215 10.5C74.069 10.5 74.825 10.668 75.483 11.004C76.155 11.34 76.68 11.837 77.058 12.495C77.45 13.139 77.646 13.923 77.646 14.847C77.646 15.001 77.639 15.162 77.625 15.33C77.611 15.498 77.59 15.673 77.562 15.855H70.107C70.205 16.807 70.436 17.549 70.8 18.081C71.164 18.613 71.619 18.991 72.165 19.215C72.711 19.425 73.313 19.53 73.971 19.53C74.447 19.53 74.944 19.481 75.462 19.383C75.98 19.285 76.47 19.131 76.932 18.921L77.184 20.412C76.792 20.594 76.302 20.776 75.714 20.958C75.14 21.126 74.482 21.21 73.74 21.21ZM70.275 14.553H75.693C75.693 14.063 75.602 13.643 75.42 13.293C75.238 12.943 74.958 12.67 74.58 12.474C74.216 12.278 73.747 12.18 73.173 12.18C72.333 12.18 71.682 12.39 71.22 12.81C70.772 13.23 70.457 13.811 70.275 14.553ZM82.4701 21.21C81.8401 21.21 81.2871 21.084 80.8111 20.832C80.3351 20.566 79.9641 20.209 79.6981 19.761C79.4321 19.313 79.2991 18.802 79.2991 18.228C79.2991 17.654 79.4251 17.157 79.6771 16.737C79.9291 16.317 80.2721 15.967 80.7061 15.687C81.1401 15.407 81.6231 15.19 82.1551 15.036C82.6871 14.868 83.2401 14.749 83.8141 14.679C84.3881 14.609 84.9341 14.567 85.4521 14.553C85.4521 13.573 85.2561 12.936 84.8641 12.642C84.4861 12.334 83.9331 12.18 83.2051 12.18C82.8131 12.18 82.4001 12.243 81.9661 12.369C81.5321 12.481 81.0421 12.726 80.4961 13.104L80.2231 11.571C80.6291 11.249 81.1401 10.99 81.7561 10.794C82.3721 10.598 83.0231 10.5 83.7091 10.5C84.5771 10.5 85.2771 10.654 85.8091 10.962C86.3411 11.27 86.7261 11.781 86.9641 12.495C87.2161 13.209 87.3421 14.189 87.3421 15.435V17.535C87.3421 18.025 87.3631 18.431 87.4051 18.753C87.4471 19.075 87.5521 19.313 87.7201 19.467C87.8881 19.621 88.1541 19.698 88.5181 19.698H88.7071L88.4131 21.21H88.2661C87.6641 21.21 87.1951 21.147 86.8591 21.021C86.5231 20.909 86.2641 20.741 86.0821 20.517C85.9141 20.293 85.7601 20.02 85.6201 19.698C85.2281 20.146 84.7661 20.51 84.2341 20.79C83.7161 21.07 83.1281 21.21 82.4701 21.21ZM82.8271 19.698C83.3311 19.698 83.8141 19.572 84.2761 19.32C84.7521 19.068 85.1441 18.732 85.4521 18.312V15.855C84.4441 15.897 83.6321 16.002 83.0161 16.17C82.4001 16.324 81.9451 16.562 81.6511 16.884C81.3711 17.192 81.2311 17.605 81.2311 18.123C81.2311 18.683 81.3781 19.089 81.6721 19.341C81.9661 19.579 82.3511 19.698 82.8271 19.698ZM90.691 21V10.71H92.245L92.476 12.411C93.008 11.753 93.512 11.27 93.988 10.962C94.464 10.654 94.975 10.5 95.521 10.5C95.703 10.5 95.864 10.521 96.004 10.563L95.815 12.642C95.717 12.614 95.619 12.6 95.521 12.6C95.423 12.586 95.311 12.579 95.185 12.579C94.639 12.579 94.135 12.705 93.673 12.957C93.211 13.195 92.889 13.454 92.707 13.734V21H90.691ZM97.8605 21V10.71H99.3305L99.7085 12.684L98.9735 12.369C99.6735 11.599 100.352 11.095 101.01 10.857C101.668 10.619 102.312 10.5 102.942 10.5C104.44 10.5 105.511 10.934 106.155 11.802C106.813 12.67 107.142 13.846 107.142 15.33V21H105.252V15.33C105.252 14.238 105.049 13.44 104.643 12.936C104.237 12.432 103.544 12.18 102.564 12.18C101.878 12.18 101.241 12.334 100.653 12.642C100.079 12.95 99.7015 13.433 99.5195 14.091L99.7505 12.936V21H97.8605Z"/><path fill="#5FF59B" d="M58 24C58 23.4477 58.4477 23 59 23H107C107.552 23 108 23.4477 108 24C108 24.5523 107.552 25 107 25H59C58.4477 25 58 24.5523 58 24Z"/></svg>